# xmcd CD database file
# Copyright (C) 1995-1998 Ti Kan
#
# Track frame offsets:
#	187
#	16077
#	29565
#	41595
#	57715
#	72317
#	86780
#	100972
#
# Disc length: 1532 seconds
#
# Revision: 1
# Processed by: cddbd v1.4b41PL1 Copyright (c) Steve Scherf et al.
# Submitted via: CDex 1.30
#
DISCID=6c05fa08
DTITLE=Steve Wariner - The Best Of Steve Wariner
DYEAR=1992
DGENRE=Country
TTITLE0=Down In Tennessee
TTITLE1=Love, Crazy Love
TTITLE2=You Make It Feel So Right
TTITLE3=Why Goodbye
TTITLE4=Lonely Women Make Good Lovers
TTITLE5=Midnight Fire
TTITLE6=Don't Your Mem'ry Ever Sleep At Night
TTITLE7=Overnight Sensation
EXTD=\nYEAR: 1992  ID3G:   2
EXTT0=
EXTT1=
EXTT2=
EXTT3=
EXTT4=
EXTT5=
EXTT6=
EXTT7=
PLAYORDER=
